<svg width="10" height="13" viewBox="0 0 10 13" fill="none" xmlns="http://www.w3.org/2000/svg">
<path d="M5 6.14286L8.12538 8.27022C8.67254 8.64265 9 9.26167 9 9.92355V10.7857C9 11.0619 8.77614 11.2857 8.5 11.2857H1.5C1.22386 11.2857 1 11.0619 1 10.7857V9.92355C1 9.26167 1.32746 8.64265 1.87462 8.27022L5 6.14286ZM5 6.14286L8.12538 4.0155C8.67254 3.64306 9 3.02405 9 2.36216V1.5C9 1.22386 8.77614 1 8.5 1H1.5C1.22386 1 1 1.22386 1 1.5V2.36216C1 3.02404 1.32746 3.64306 1.87462 4.0155L5 6.14286Z" stroke="#33363F" stroke-width="2" stroke-linecap="round" stroke-linejoin="round"/>
<path d="M6.71428 10.9214V11.1357C6.71428 11.2186 6.64712 11.2857 6.56428 11.2857H3.43571C3.35286 11.2857 3.28571 11.2186 3.28571 11.1357V10.9214C3.28571 10.7888 3.33838 10.6616 3.43215 10.5678L4.43431 9.56569C4.74673 9.25327 5.25326 9.25327 5.56568 9.56569L6.56783 10.5678C6.6616 10.6616 6.71428 10.7888 6.71428 10.9214Z" fill="#33363F"/>
<path d="M5.00003 5.57141L7.85717 3.85713H2.14288L5.00003 5.57141Z" fill="#33363F"/>
<path d="M5 9.57145V6.14288" stroke="#33363F" stroke-width="2" stroke-linecap="round" stroke-linejoin="round"/>
</svg>
