<svg width="18" height="19" viewBox="0 0 18 19" fill="none" xmlns="http://www.w3.org/2000/svg">
<path d="M13.628 3.58344C13.0401 3.58344 12.5878 4.04197 12.5878 4.63807C12.5878 5.23417 13.0401 5.6927 13.628 5.6927C14.216 5.6927 14.6683 5.23417 14.6683 4.63807C14.7136 4.04197 14.216 3.58344 13.628 3.58344Z" fill="white"/>
<path d="M9.01465 4.91321C6.61748 4.91321 4.62738 6.88492 4.62738 9.36101C4.62738 11.7913 6.57225 13.8088 9.01465 13.8088C11.4118 13.8088 13.4019 11.8371 13.4019 9.36101C13.4019 6.93077 11.4118 4.91321 9.01465 4.91321ZM9.01465 12.2039C7.47684 12.2039 6.21042 10.92 6.21042 9.36101C6.21042 7.80199 7.47684 6.51809 9.01465 6.51809C10.5525 6.51809 11.8189 7.80199 11.8189 9.36101C11.8189 10.92 10.5525 12.2039 9.01465 12.2039Z" fill="white"/>
<path d="M12.4973 18.3942H5.39629C2.45637 18.3942 0.0592041 15.9639 0.0592041 12.9834V5.73855C0.0592041 2.75806 2.45637 0.32782 5.39629 0.32782H12.4973C15.4373 0.32782 17.8344 2.75806 17.8344 5.73855V12.9376C17.8344 15.9639 15.4373 18.3942 12.4973 18.3942ZM5.39629 2.02441C3.36096 2.02441 1.7327 3.67514 1.7327 5.73855V12.9376C1.7327 15.001 3.36096 16.6517 5.39629 16.6517H12.4973C14.5327 16.6517 16.1609 15.001 16.1609 12.9376V5.73855C16.1609 3.67514 14.5327 2.02441 12.4973 2.02441H5.39629Z" fill="white"/>
</svg>
