<svg width="17" height="21" viewBox="0 0 17 21" fill="none" xmlns="http://www.w3.org/2000/svg">
<path d="M16.9918 8.61855C16.8561 8.61855 16.6752 8.6644 16.5395 8.6644C14.8208 8.6644 13.2378 7.79318 12.2879 6.32586V14.2585C12.2879 17.4683 9.70984 20.1278 6.49855 20.1278C3.33248 20.1278 0.709167 17.5142 0.709167 14.2585C0.709167 11.0488 3.28725 8.38928 6.49855 8.38928C6.63423 8.38928 6.7247 8.38928 6.86039 8.38928V11.2781C6.7247 11.2781 6.63423 11.2322 6.49855 11.2322C4.87028 11.2322 3.55862 12.562 3.55862 14.2127C3.55862 15.8634 4.87028 17.1932 6.49855 17.1932C8.12681 17.1932 9.57416 15.9093 9.57416 14.2585L9.61938 0.823425H12.3332C12.6045 3.29952 14.5494 5.22538 16.9918 5.40879V8.61855Z" fill="white"/>
</svg>
