<svg width="135" height="135" viewBox="0 0 135 135" fill="none" xmlns="http://www.w3.org/2000/svg">
<g clip-path="url(#clip0_153_46)">
<path d="M22.3412 90.4708V96.037C22.3412 97.6154 23.1206 98.3631 24.5927 98.3631C26.0648 98.3631 26.8441 97.5323 26.8441 96.037V93.7108H32.0398V96.037C32.0398 100.938 29.5285 103.348 24.5061 103.348C19.4836 103.348 16.9724 100.938 16.9724 96.037V81.3324C16.9724 76.4308 19.4836 74.0216 24.5061 74.0216C29.5285 74.0216 32.0398 76.5139 32.0398 81.3324V90.4708H22.3412ZM26.9307 86.0677V81.3324C26.9307 79.7539 26.1514 79.0062 24.6793 79.0062C23.2072 79.0062 22.4278 79.7539 22.4278 81.3324V86.0677H26.9307Z" fill="black"/>
<path d="M72.9121 90.4708V96.037C72.9121 97.6154 73.6914 98.3631 75.1635 98.3631C76.6356 98.3631 77.415 97.5323 77.415 96.037V93.7108H82.6106V96.037C82.6106 100.938 80.0994 103.348 75.0769 103.348C70.0545 103.348 67.5433 100.938 67.5433 96.037V81.3324C67.5433 76.4308 70.0545 74.0216 75.0769 74.0216C80.0994 74.0216 82.6106 76.5139 82.6106 81.3324V90.4708H72.9121ZM77.5016 86.0677V81.3324C77.5016 79.7539 76.7222 79.0062 75.2501 79.0062C73.778 79.0062 72.9987 79.7539 72.9987 81.3324V86.0677H77.5016Z" fill="black"/>
<path d="M110.754 85.9847V81.3324C110.754 79.7539 109.974 79.0062 108.502 79.0062C107.03 79.0062 106.251 79.837 106.251 81.3324V83.6585H101.055V81.3324C101.055 76.4308 103.566 74.0216 108.589 74.0216C113.611 74.0216 116.123 76.4308 116.123 81.3324V96.037C116.123 100.938 113.611 103.348 108.589 103.348C103.566 103.348 101.055 100.855 101.055 96.037V85.9847H110.754ZM106.251 90.4708V96.037C106.251 97.6154 107.03 98.3631 108.502 98.3631C109.974 98.3631 110.754 97.6154 110.754 96.037V90.4708H106.251Z" fill="black"/>
<path d="M123.829 65.9631V85.9846L128.246 74.3538H133.701L128.072 88.6431L135 102.766H129.371L123.829 90.4708V102.766H118.634V65.9631H123.829Z" fill="black"/>
<path d="M65.4651 96.037V81.3324C65.4651 76.4308 62.9538 74.0216 57.9314 74.0216C52.9089 74.0216 50.3977 76.4308 50.3977 81.3324V96.037C50.3977 100.108 52.1296 102.434 55.5933 103.099V105.84C52.1296 106.505 50.3977 108.914 50.3977 112.985V127.689C50.3977 132.591 52.9089 135 57.9314 135C62.9538 135 65.4651 132.591 65.4651 127.689V112.985C65.4651 108.914 63.7332 106.588 60.2694 105.84V103.099C63.7332 102.434 65.4651 100.108 65.4651 96.037ZM55.6799 81.3324C55.6799 79.7539 56.4593 79.0062 57.9314 79.0062C59.4901 79.0062 60.1828 79.7539 60.1828 81.3324V96.037C60.1828 97.6154 59.4035 98.3631 57.9314 98.3631C56.4593 98.3631 55.6799 97.6154 55.6799 96.037V81.3324ZM60.1828 127.689C60.1828 129.268 59.4035 130.015 57.9314 130.015C56.4593 130.015 55.6799 129.268 55.6799 127.689V112.985C55.6799 111.406 56.4593 110.659 57.9314 110.659C59.4901 110.659 60.1828 111.406 60.1828 112.985V127.689Z" fill="black"/>
<path d="M14.9808 81.1661C14.8942 76.4308 12.3829 74.0215 7.44708 74.0215C6.58114 74.0215 5.88839 74.1046 5.19564 74.1877V65.9631H0V81.3323V87.8954V96.12C0 101.021 2.51122 103.431 7.53368 103.431C12.5561 103.431 15.0674 101.021 15.0674 96.12V81.3323V81.2492C14.9808 81.2492 14.9808 81.1661 14.9808 81.1661ZM7.53368 79.0061C9.09237 79.0061 9.78512 79.7538 9.78512 81.3323V96.0369C9.78512 97.6153 9.00577 98.363 7.53368 98.363C6.06158 98.363 5.28223 97.6153 5.28223 96.0369V81.3323C5.19564 79.7538 5.97498 79.0061 7.53368 79.0061Z" fill="black"/>
<path d="M43.73 81.3324V83.6585H48.9256V81.3324C48.9256 76.4308 46.4144 74.0216 41.392 74.0216C36.3695 74.0216 33.8583 76.4308 33.8583 81.3324V102.766H39.0539V81.3324C39.0539 79.7539 39.8333 79.0062 41.3054 79.0062C43.0372 79.0062 43.73 79.7539 43.73 81.3324Z" fill="black"/>
<path d="M94.7338 81.3324V83.6585H99.9294V81.3324C99.9294 76.4308 97.4182 74.0216 92.3957 74.0216C87.3733 74.0216 84.8621 76.4308 84.8621 81.3324V102.766H90.0577V81.3324C90.0577 79.7539 90.837 79.0062 92.3091 79.0062C93.9544 79.0062 94.7338 79.7539 94.7338 81.3324Z" fill="black"/>
<path d="M64.9455 35.0585L62.8672 33.0646C62.8672 33.0646 62.4343 32.6492 61.7415 31.9846C62.3477 31.32 62.8672 30.9046 62.8672 30.9046L64.9455 28.9108C70.8339 31.5692 77.2418 27.4154 77.2418 21.4338C77.2418 16.8646 73.3451 13.1262 68.5824 13.1262C62.4343 13.1262 58.018 19.3569 60.789 24.9231L57.9314 27.6646C57.7582 27.8308 57.585 28.08 57.4118 28.2462C57.3252 27.9969 57.152 27.8308 56.8922 27.6646L54.0347 24.9231C56.8057 19.2738 52.476 13.1262 46.2412 13.1262C41.4785 13.1262 37.5818 16.8646 37.5818 21.4338C37.5818 27.3323 44.0763 31.5692 49.8781 28.9108L51.9564 30.9046C51.9564 30.9046 52.3894 31.32 53.0821 31.9846C52.476 32.6492 51.9564 33.0646 51.9564 33.0646L49.8781 35.0585C44.1629 32.4 37.755 36.5538 37.755 42.5354C37.755 47.1046 41.6517 50.8431 46.4144 50.8431C52.5625 50.8431 56.9788 44.6123 54.2078 39.0461L57.0654 36.3046C57.2386 36.1385 57.4118 35.8892 57.585 35.7231C57.6716 35.9723 57.8448 36.1385 58.1046 36.3046L60.9622 39.0461C58.1912 44.6954 62.5209 50.8431 68.7556 50.8431C73.5183 50.8431 77.415 47.1046 77.415 42.5354C77.2418 36.5538 70.7473 32.4 64.9455 35.0585ZM68.5824 18.7754C70.1411 18.7754 71.44 20.0215 71.44 21.5169C71.44 23.0123 70.1411 24.2585 68.5824 24.2585C67.0237 24.2585 65.7248 23.0123 65.7248 21.5169C65.7248 20.0215 67.0237 18.7754 68.5824 18.7754ZM46.3278 24.2585C44.7691 24.2585 43.4702 23.0123 43.4702 21.5169C43.4702 20.0215 44.7691 18.7754 46.3278 18.7754C47.8865 18.7754 49.1854 20.0215 49.1854 21.5169C49.1854 23.0123 47.9731 24.2585 46.3278 24.2585ZM46.3278 45.2769C44.7691 45.2769 43.4702 44.0308 43.4702 42.5354C43.4702 41.04 44.7691 39.7938 46.3278 39.7938C47.8865 39.7938 49.1854 41.04 49.1854 42.5354C49.1854 44.0308 47.9731 45.2769 46.3278 45.2769ZM68.5824 45.2769C67.0237 45.2769 65.7248 44.0308 65.7248 42.5354C65.7248 41.04 67.0237 39.7938 68.5824 39.7938C70.1411 39.7938 71.44 41.04 71.44 42.5354C71.5266 44.0308 70.2277 45.2769 68.5824 45.2769Z" fill="black"/>
<path d="M57.4984 64.0523C39.0539 64.0523 24.1597 49.68 24.1597 32.0677C24.1597 14.4554 39.0539 0 57.4984 0C75.9429 0 90.8371 14.3723 90.8371 31.9846C90.8371 49.5969 75.8563 64.0523 57.4984 64.0523ZM57.4984 5.4C42.1713 5.4 29.7017 17.3631 29.7017 32.0677C29.7017 46.7723 42.1713 58.7354 57.4984 58.7354C72.8255 58.7354 85.2951 46.7723 85.2951 32.0677C85.2951 17.3631 72.8255 5.4 57.4984 5.4Z" fill="black"/>
</g>
<defs>
<clipPath id="clip0_153_46">
<rect width="135" height="135" fill="white"/>
</clipPath>
</defs>
</svg>
