<svg width="170" height="170" viewBox="0 0 170 170" fill="none" xmlns="http://www.w3.org/2000/svg">
<rect width="170" height="170" rx="17" fill="#D9D9D9"/>
<g clip-path="url(#clip0_2_34)">
<mask id="mask0_2_34" style="mask-type:luminance" maskUnits="userSpaceOnUse" x="19" y="19" width="135" height="135">
<path d="M154 19H19V154H154V19Z" fill="white"/>
</mask>
<g mask="url(#mask0_2_34)">
<path d="M41.3412 109.471V115.037C41.3412 116.615 42.1206 117.363 43.5927 117.363C45.0648 117.363 45.8441 116.532 45.8441 115.037V112.711H51.0398V115.037C51.0398 119.938 48.5285 122.348 43.5061 122.348C38.4836 122.348 35.9724 119.938 35.9724 115.037V100.332C35.9724 95.4308 38.4836 93.0216 43.5061 93.0216C48.5285 93.0216 51.0398 95.5139 51.0398 100.332V109.471H41.3412ZM45.9307 105.068V100.332C45.9307 98.7539 45.1514 98.0062 43.6793 98.0062C42.2072 98.0062 41.4278 98.7539 41.4278 100.332V105.068H45.9307Z" fill="#A7A7A7"/>
<path d="M91.9121 109.471V115.037C91.9121 116.615 92.6914 117.363 94.1635 117.363C95.6356 117.363 96.415 116.532 96.415 115.037V112.711H101.611V115.037C101.611 119.938 99.0994 122.348 94.0769 122.348C89.0545 122.348 86.5433 119.938 86.5433 115.037V100.332C86.5433 95.4308 89.0545 93.0216 94.0769 93.0216C99.0994 93.0216 101.611 95.5139 101.611 100.332V109.471H91.9121ZM96.5016 105.068V100.332C96.5016 98.7539 95.7222 98.0062 94.2501 98.0062C92.778 98.0062 91.9987 98.7539 91.9987 100.332V105.068H96.5016Z" fill="#A7A7A7"/>
<path d="M129.754 104.985V100.332C129.754 98.7539 128.974 98.0062 127.502 98.0062C126.03 98.0062 125.251 98.837 125.251 100.332V102.659H120.055V100.332C120.055 95.4308 122.566 93.0216 127.589 93.0216C132.611 93.0216 135.123 95.4308 135.123 100.332V115.037C135.123 119.938 132.611 122.348 127.589 122.348C122.566 122.348 120.055 119.855 120.055 115.037V104.985H129.754ZM125.251 109.471V115.037C125.251 116.615 126.03 117.363 127.502 117.363C128.974 117.363 129.754 116.615 129.754 115.037V109.471H125.251Z" fill="#A7A7A7"/>
<path d="M142.829 84.9631V104.985L147.246 93.3538H152.701L147.072 107.643L154 121.766H148.371L142.829 109.471V121.766H137.634V84.9631H142.829Z" fill="#A7A7A7"/>
<path d="M84.4651 115.037V100.332C84.4651 95.4308 81.9538 93.0216 76.9314 93.0216C71.9089 93.0216 69.3977 95.4308 69.3977 100.332V115.037C69.3977 119.108 71.1296 121.434 74.5933 122.099V124.84C71.1296 125.505 69.3977 127.914 69.3977 131.985V146.689C69.3977 151.591 71.9089 154 76.9314 154C81.9538 154 84.4651 151.591 84.4651 146.689V131.985C84.4651 127.914 82.7332 125.588 79.2694 124.84V122.099C82.7332 121.434 84.4651 119.108 84.4651 115.037ZM74.6799 100.332C74.6799 98.7539 75.4593 98.0062 76.9314 98.0062C78.4901 98.0062 79.1828 98.7539 79.1828 100.332V115.037C79.1828 116.615 78.4035 117.363 76.9314 117.363C75.4593 117.363 74.6799 116.615 74.6799 115.037V100.332ZM79.1828 146.689C79.1828 148.268 78.4035 149.015 76.9314 149.015C75.4593 149.015 74.6799 148.268 74.6799 146.689V131.985C74.6799 130.406 75.4593 129.659 76.9314 129.659C78.4901 129.659 79.1828 130.406 79.1828 131.985V146.689Z" fill="#A7A7A7"/>
<path d="M33.9808 100.166C33.8942 95.4308 31.3829 93.0215 26.4471 93.0215C25.5811 93.0215 24.8884 93.1046 24.1956 93.1877V84.9631H19V100.332V106.895V115.12C19 120.021 21.5112 122.431 26.5337 122.431C31.5561 122.431 34.0674 120.021 34.0674 115.12V100.332V100.249C33.9808 100.249 33.9808 100.166 33.9808 100.166ZM26.5337 98.0061C28.0924 98.0061 28.7851 98.7538 28.7851 100.332V115.037C28.7851 116.615 28.0058 117.363 26.5337 117.363C25.0616 117.363 24.2822 116.615 24.2822 115.037V100.332C24.1956 98.7538 24.975 98.0061 26.5337 98.0061Z" fill="#A7A7A7"/>
<path d="M62.73 100.332V102.659H67.9256V100.332C67.9256 95.4308 65.4144 93.0216 60.392 93.0216C55.3695 93.0216 52.8583 95.4308 52.8583 100.332V121.766H58.0539V100.332C58.0539 98.7539 58.8333 98.0062 60.3054 98.0062C62.0372 98.0062 62.73 98.7539 62.73 100.332Z" fill="#A7A7A7"/>
<path d="M113.734 100.332V102.659H118.929V100.332C118.929 95.4308 116.418 93.0216 111.396 93.0216C106.373 93.0216 103.862 95.4308 103.862 100.332V121.766H109.058V100.332C109.058 98.7539 109.837 98.0062 111.309 98.0062C112.954 98.0062 113.734 98.7539 113.734 100.332Z" fill="#A7A7A7"/>
<path d="M83.9455 54.0585L81.8672 52.0646C81.8672 52.0646 81.4343 51.6492 80.7415 50.9846C81.3477 50.32 81.8672 49.9046 81.8672 49.9046L83.9455 47.9108C89.8339 50.5692 96.2418 46.4154 96.2418 40.4338C96.2418 35.8646 92.3451 32.1262 87.5824 32.1262C81.4343 32.1262 77.018 38.3569 79.789 43.9231L76.9314 46.6646C76.7582 46.8308 76.585 47.08 76.4118 47.2462C76.3252 46.9969 76.152 46.8308 75.8922 46.6646L73.0347 43.9231C75.8057 38.2738 71.476 32.1262 65.2412 32.1262C60.4785 32.1262 56.5818 35.8646 56.5818 40.4338C56.5818 46.3323 63.0763 50.5692 68.8781 47.9108L70.9564 49.9046C70.9564 49.9046 71.3894 50.32 72.0821 50.9846C71.476 51.6492 70.9564 52.0646 70.9564 52.0646L68.8781 54.0585C63.1629 51.4 56.755 55.5538 56.755 61.5354C56.755 66.1046 60.6517 69.8431 65.4144 69.8431C71.5625 69.8431 75.9788 63.6123 73.2078 58.0461L76.0654 55.3046C76.2386 55.1385 76.4118 54.8892 76.585 54.7231C76.6716 54.9723 76.8448 55.1385 77.1046 55.3046L79.9622 58.0461C77.1912 63.6954 81.5209 69.8431 87.7556 69.8431C92.5183 69.8431 96.415 66.1046 96.415 61.5354C96.2418 55.5538 89.7473 51.4 83.9455 54.0585ZM87.5824 37.7754C89.1411 37.7754 90.44 39.0215 90.44 40.5169C90.44 42.0123 89.1411 43.2585 87.5824 43.2585C86.0237 43.2585 84.7248 42.0123 84.7248 40.5169C84.7248 39.0215 86.0237 37.7754 87.5824 37.7754ZM65.3278 43.2585C63.7691 43.2585 62.4702 42.0123 62.4702 40.5169C62.4702 39.0215 63.7691 37.7754 65.3278 37.7754C66.8865 37.7754 68.1854 39.0215 68.1854 40.5169C68.1854 42.0123 66.9731 43.2585 65.3278 43.2585ZM65.3278 64.2769C63.7691 64.2769 62.4702 63.0308 62.4702 61.5354C62.4702 60.04 63.7691 58.7938 65.3278 58.7938C66.8865 58.7938 68.1854 60.04 68.1854 61.5354C68.1854 63.0308 66.9731 64.2769 65.3278 64.2769ZM87.5824 64.2769C86.0237 64.2769 84.7248 63.0308 84.7248 61.5354C84.7248 60.04 86.0237 58.7938 87.5824 58.7938C89.1411 58.7938 90.44 60.04 90.44 61.5354C90.5266 63.0308 89.2277 64.2769 87.5824 64.2769Z" fill="#A7A7A7"/>
<path d="M76.4984 83.0523C58.0539 83.0523 43.1597 68.68 43.1597 51.0677C43.1597 33.4554 58.0539 19 76.4984 19C94.9429 19 109.837 33.3723 109.837 50.9846C109.837 68.5969 94.8563 83.0523 76.4984 83.0523ZM76.4984 24.4C61.1713 24.4 48.7017 36.3631 48.7017 51.0677C48.7017 65.7723 61.1713 77.7354 76.4984 77.7354C91.8255 77.7354 104.295 65.7723 104.295 51.0677C104.295 36.3631 91.8255 24.4 76.4984 24.4Z" fill="#A7A7A7"/>
</g>
</g>
<g clip-path="url(#clip1_2_34)">
<mask id="mask1_2_34" style="mask-type:luminance" maskUnits="userSpaceOnUse" x="16" y="16" width="135" height="135">
<path d="M151 16H16V151H151V16Z" fill="white"/>
</mask>
<g mask="url(#mask1_2_34)">
<path d="M38.3412 106.471V112.037C38.3412 113.615 39.1206 114.363 40.5927 114.363C42.0648 114.363 42.8441 113.532 42.8441 112.037V109.711H48.0398V112.037C48.0398 116.938 45.5285 119.348 40.5061 119.348C35.4836 119.348 32.9724 116.938 32.9724 112.037V97.3324C32.9724 92.4308 35.4836 90.0216 40.5061 90.0216C45.5285 90.0216 48.0398 92.5139 48.0398 97.3324V106.471H38.3412ZM42.9307 102.068V97.3324C42.9307 95.7539 42.1514 95.0062 40.6793 95.0062C39.2072 95.0062 38.4278 95.7539 38.4278 97.3324V102.068H42.9307Z" fill="black"/>
<path d="M88.9121 106.471V112.037C88.9121 113.615 89.6914 114.363 91.1635 114.363C92.6356 114.363 93.415 113.532 93.415 112.037V109.711H98.6106V112.037C98.6106 116.938 96.0994 119.348 91.0769 119.348C86.0545 119.348 83.5433 116.938 83.5433 112.037V97.3324C83.5433 92.4308 86.0545 90.0216 91.0769 90.0216C96.0994 90.0216 98.6106 92.5139 98.6106 97.3324V106.471H88.9121ZM93.5016 102.068V97.3324C93.5016 95.7539 92.7222 95.0062 91.2501 95.0062C89.778 95.0062 88.9987 95.7539 88.9987 97.3324V102.068H93.5016Z" fill="black"/>
<path d="M126.754 101.985V97.3324C126.754 95.7539 125.974 95.0062 124.502 95.0062C123.03 95.0062 122.251 95.837 122.251 97.3324V99.6585H117.055V97.3324C117.055 92.4308 119.566 90.0216 124.589 90.0216C129.611 90.0216 132.123 92.4308 132.123 97.3324V112.037C132.123 116.938 129.611 119.348 124.589 119.348C119.566 119.348 117.055 116.855 117.055 112.037V101.985H126.754ZM122.251 106.471V112.037C122.251 113.615 123.03 114.363 124.502 114.363C125.974 114.363 126.754 113.615 126.754 112.037V106.471H122.251Z" fill="black"/>
<path d="M139.829 81.9631V101.985L144.246 90.3538H149.701L144.072 104.643L151 118.766H145.371L139.829 106.471V118.766H134.634V81.9631H139.829Z" fill="black"/>
<path d="M81.4651 112.037V97.3324C81.4651 92.4308 78.9538 90.0216 73.9314 90.0216C68.9089 90.0216 66.3977 92.4308 66.3977 97.3324V112.037C66.3977 116.108 68.1296 118.434 71.5933 119.099V121.84C68.1296 122.505 66.3977 124.914 66.3977 128.985V143.689C66.3977 148.591 68.9089 151 73.9314 151C78.9538 151 81.4651 148.591 81.4651 143.689V128.985C81.4651 124.914 79.7332 122.588 76.2694 121.84V119.099C79.7332 118.434 81.4651 116.108 81.4651 112.037ZM71.6799 97.3324C71.6799 95.7539 72.4593 95.0062 73.9314 95.0062C75.4901 95.0062 76.1828 95.7539 76.1828 97.3324V112.037C76.1828 113.615 75.4035 114.363 73.9314 114.363C72.4593 114.363 71.6799 113.615 71.6799 112.037V97.3324ZM76.1828 143.689C76.1828 145.268 75.4035 146.015 73.9314 146.015C72.4593 146.015 71.6799 145.268 71.6799 143.689V128.985C71.6799 127.406 72.4593 126.659 73.9314 126.659C75.4901 126.659 76.1828 127.406 76.1828 128.985V143.689Z" fill="black"/>
<path d="M30.9808 97.1661C30.8942 92.4308 28.3829 90.0215 23.4471 90.0215C22.5811 90.0215 21.8884 90.1046 21.1956 90.1877V81.9631H16V97.3323V103.895V112.12C16 117.021 18.5112 119.431 23.5337 119.431C28.5561 119.431 31.0674 117.021 31.0674 112.12V97.3323V97.2492C30.9808 97.2492 30.9808 97.1661 30.9808 97.1661ZM23.5337 95.0061C25.0924 95.0061 25.7851 95.7538 25.7851 97.3323V112.037C25.7851 113.615 25.0058 114.363 23.5337 114.363C22.0616 114.363 21.2822 113.615 21.2822 112.037V97.3323C21.1956 95.7538 21.975 95.0061 23.5337 95.0061Z" fill="black"/>
<path d="M59.73 97.3324V99.6585H64.9256V97.3324C64.9256 92.4308 62.4144 90.0216 57.392 90.0216C52.3695 90.0216 49.8583 92.4308 49.8583 97.3324V118.766H55.0539V97.3324C55.0539 95.7539 55.8333 95.0062 57.3054 95.0062C59.0372 95.0062 59.73 95.7539 59.73 97.3324Z" fill="black"/>
<path d="M110.734 97.3324V99.6585H115.929V97.3324C115.929 92.4308 113.418 90.0216 108.396 90.0216C103.373 90.0216 100.862 92.4308 100.862 97.3324V118.766H106.058V97.3324C106.058 95.7539 106.837 95.0062 108.309 95.0062C109.954 95.0062 110.734 95.7539 110.734 97.3324Z" fill="black"/>
<path d="M80.9455 51.0585L78.8672 49.0646C78.8672 49.0646 78.4343 48.6492 77.7415 47.9846C78.3477 47.32 78.8672 46.9046 78.8672 46.9046L80.9455 44.9108C86.8339 47.5692 93.2418 43.4154 93.2418 37.4338C93.2418 32.8646 89.3451 29.1262 84.5824 29.1262C78.4343 29.1262 74.018 35.3569 76.789 40.9231L73.9314 43.6646C73.7582 43.8308 73.585 44.08 73.4118 44.2462C73.3252 43.9969 73.152 43.8308 72.8922 43.6646L70.0347 40.9231C72.8057 35.2738 68.476 29.1262 62.2412 29.1262C57.4785 29.1262 53.5818 32.8646 53.5818 37.4338C53.5818 43.3323 60.0763 47.5692 65.8781 44.9108L67.9564 46.9046C67.9564 46.9046 68.3894 47.32 69.0821 47.9846C68.476 48.6492 67.9564 49.0646 67.9564 49.0646L65.8781 51.0585C60.1629 48.4 53.755 52.5538 53.755 58.5354C53.755 63.1046 57.6517 66.8431 62.4144 66.8431C68.5625 66.8431 72.9788 60.6123 70.2078 55.0461L73.0654 52.3046C73.2386 52.1385 73.4118 51.8892 73.585 51.7231C73.6716 51.9723 73.8448 52.1385 74.1046 52.3046L76.9622 55.0461C74.1912 60.6954 78.5209 66.8431 84.7556 66.8431C89.5183 66.8431 93.415 63.1046 93.415 58.5354C93.2418 52.5538 86.7473 48.4 80.9455 51.0585ZM84.5824 34.7754C86.1411 34.7754 87.44 36.0215 87.44 37.5169C87.44 39.0123 86.1411 40.2585 84.5824 40.2585C83.0237 40.2585 81.7248 39.0123 81.7248 37.5169C81.7248 36.0215 83.0237 34.7754 84.5824 34.7754ZM62.3278 40.2585C60.7691 40.2585 59.4702 39.0123 59.4702 37.5169C59.4702 36.0215 60.7691 34.7754 62.3278 34.7754C63.8865 34.7754 65.1854 36.0215 65.1854 37.5169C65.1854 39.0123 63.9731 40.2585 62.3278 40.2585ZM62.3278 61.2769C60.7691 61.2769 59.4702 60.0308 59.4702 58.5354C59.4702 57.04 60.7691 55.7938 62.3278 55.7938C63.8865 55.7938 65.1854 57.04 65.1854 58.5354C65.1854 60.0308 63.9731 61.2769 62.3278 61.2769ZM84.5824 61.2769C83.0237 61.2769 81.7248 60.0308 81.7248 58.5354C81.7248 57.04 83.0237 55.7938 84.5824 55.7938C86.1411 55.7938 87.44 57.04 87.44 58.5354C87.5266 60.0308 86.2277 61.2769 84.5824 61.2769Z" fill="black"/>
<path d="M73.4984 80.0523C55.0539 80.0523 40.1597 65.68 40.1597 48.0677C40.1597 30.4554 55.0539 16 73.4984 16C91.9429 16 106.837 30.3723 106.837 47.9846C106.837 65.5969 91.8563 80.0523 73.4984 80.0523ZM73.4984 21.4C58.1713 21.4 45.7017 33.3631 45.7017 48.0677C45.7017 62.7723 58.1713 74.7354 73.4984 74.7354C88.8255 74.7354 101.295 62.7723 101.295 48.0677C101.295 33.3631 88.8255 21.4 73.4984 21.4Z" fill="black"/>
</g>
</g>
<defs>
<clipPath id="clip0_2_34">
<rect width="135" height="135" fill="white" transform="translate(19 19)"/>
</clipPath>
<clipPath id="clip1_2_34">
<rect width="135" height="135" fill="white" transform="translate(16 16)"/>
</clipPath>
</defs>
</svg>
